<?xml version="1.0" standalone="no"?>
<!DOCTYPE svg PUBLIC "-//W3C//DTD SVG 1.1//EN" "http://www.w3.org/Graphics/SVG/1.1/DTD/svg11.dtd" >
<svg xmlns="http://www.w3.org/2000/svg">
<defs>
  <font id="zooplus-icons" horiz-adv-x="24">
    <font-face font-family="zooplus-icons"
      units-per-em="1001" ascent="1001"
      descent="0" />
    <missing-glyph horiz-adv-x="0" />
    <glyph glyph-name="add"
      unicode="&#xEA01;"
      horiz-adv-x="1001" d="M500.5 917.5833333333334C270.3395140279167 917.5833333333334 83.4166666666667 730.6604859720833 83.4166666666667 500.5C83.4166666666667 270.3395152791667 270.3395140279167 83.4166666666666 500.5 83.4166666666666C730.6604847208333 83.4166666666666 917.5833333333334 270.3395152791667 917.5833333333334 500.5C917.5833333333334 730.6604859720833 730.6604847208333 917.5833333333334 500.5 917.5833333333334zM500.5 129.7476722208333C291.9583333333334 129.7476722208333 129.7476734720833 291.9583333333333 129.7476734720833 500.5C129.7476734720833 709.0416666666666 291.9583333333334 871.2523265279167 500.5 871.2523265279167C709.0416666666667 871.2523265279167 871.2523277791668 709.0416666666666 871.2523277791668 500.5C871.2523277791668 291.9583333333333 709.0416666666667 129.7476722208333 500.5 129.7476722208333zM696.6681930541667 531.3989222208334L546.8310055541667 531.3989222208334L546.8310055541667 681.2361109720833C546.8310055541667 699.7615625 529.8348597208334 716.7577083333333 508.2160416666667 716.7577083333333C486.5972236125 716.7577083333333 469.6010777791667 701.325625 469.6010777791667 681.2361109720833L469.6010777791667 531.3989222208334L318.1998265279167 531.3989222208334C299.674375 531.3989222208334 284.20753486125 514.4027763874999 284.20753486125 492.7839583333333C284.20753486125 471.1651402791666 299.6396181945834 454.1689944458333 319.7291318054167 454.1689944458333L469.5663180541667 454.1689944458333L469.5663180541667 304.3318069458333C469.5663180541667 285.8063541666666 486.5624638875 268.8102083333333 508.1812861125001 268.8102083333333C529.8001041666668 268.8102083333333 546.79625 284.2422916666667 546.79625 304.3318069458333L546.79625 454.1689944458333L696.6334375 454.1689944458333C715.1588902791667 454.1689944458333 732.1550361125 471.1651402791666 732.1550361125 492.7839583333333C732.1550361125 514.4027763874999 716.7229527791667 531.3989222208334 696.6334375 531.3989222208334L696.6681930541667 531.3989222208334z" />
    <glyph glyph-name="angle-down"
      unicode="&#xEA02;"
      horiz-adv-x="1001" d="M738.2375000000001 596.4291666666667L487.9875 346.1791666666667L237.7375 596.4291666666667L296.1291666666667 654.8208333333332L487.9875 462.9625L679.8458333333334 654.8208333333332z" />
    <glyph glyph-name="angle-left"
      unicode="&#xEA03;"
      horiz-adv-x="1001" d="M608.9416666666667 750.75L667.3333333333334 692.3583333333333L475.475 500.5L667.3333333333334 308.6416666666666L608.9416666666667 250.25L358.6916666666667 500.5z" />
    <glyph glyph-name="angle-right"
      unicode="&#xEA04;"
      horiz-adv-x="1001" d="M392.0583333333334 750.75L333.6666666666667 692.3583333333333L525.525 500.5L333.6666666666667 308.6416666666666L392.0583333333334 250.25L642.3083333333334 500.5z" />
    <glyph glyph-name="angle-up"
      unicode="&#xEA05;"
      horiz-adv-x="1001" d="M738.2375000000001 404.5708333333334L679.8458333333334 346.1791666666667L487.9875 538.0374999999999L296.1291666666667 346.1791666666667L237.7375 404.5708333333334L487.9875 654.8208333333332z" />
    <glyph glyph-name="arrow-down"
      unicode="&#xEA06;"
      horiz-adv-x="1001" d="M500.5 917.5833333333334C270.3395140279167 917.5833333333334 83.4166666666667 730.6604859720833 83.4166666666667 500.5C83.4166666666667 270.3395152791667 270.3395140279167 83.4166666666666 500.5 83.4166666666666C730.6604847208333 83.4166666666666 917.5833333333334 270.3395152791667 917.5833333333334 500.5C917.5833333333334 730.6604859720833 730.6604847208333 917.5833333333334 500.5 917.5833333333334zM500.5 125.125C289.3581607583334 125.125 125.125 289.3581607583334 125.125 500.5C125.125 711.6418392416666 289.3581607583334 875.875 500.5 875.875C711.6418392416666 875.875 875.875 711.6418392416666 875.875 500.5C875.875 289.3581607583334 711.6418392416666 125.125 500.5 125.125zM709.0416666666667 486.5972236125C673.5200680541667 512.8734736125 549.924375 602.4421181945834 523.6828805541667 622.5316318054166C506.6867347208333 634.9051041666667 488.1612861125 630.2476734720833 472.6944430541667 619.4382640279166C460.3209736125 610.1581598612499 295.0517015279167 489.6905888875 284.2422916666667 480.4104847208333C259.5301041666667 463.4143388875 261.05940986125 424.799375 290.4290276387501 410.8965986125001C308.9544791666667 403.1805569458334 324.4213193054167 412.4259013875 338.3240973612501 421.7060055541666C353.7561806945833 432.5154166666666 500.5347555541667 540.6442708333334 500.5347555541667 540.6442708333334C500.5347555541667 540.6442708333334 614.8503486125 457.2276041666667 671.9907652791667 415.5192708333333C696.7029527791666 396.9938180541666 735.3179166666666 413.9899638875001 735.3179166666666 446.4181930541667C735.3179166666666 466.5077083333333 722.9444430541666 477.3171194458333 709.0416666666667 486.5972236125z" />
    <glyph glyph-name="arrow-left"
      unicode="&#xEA07;"
      horiz-adv-x="1001" d="M500.5 917.5833333333334C270.3395140279167 917.5833333333334 83.4166666666667 730.6604859720833 83.4166666666667 500.5C83.4166666666667 270.3395152791667 270.3395140279167 83.4166666666666 500.5 83.4166666666666C730.6604847208333 83.4166666666666 917.5833333333334 270.3395152791667 917.5833333333334 500.5C917.5833333333334 730.6604859720833 730.6604847208333 917.5833333333334 500.5 917.5833333333334zM500.5 125.125C289.3581607583334 125.125 125.125 289.3581607583334 125.125 500.5C125.125 711.6418392416666 289.3581607583334 875.875 500.5 875.875C711.6418392416666 875.875 875.875 711.6418392416666 875.875 500.5C875.875 289.3581607583334 711.6418392416666 125.125 500.5 125.125zM457.2623597208334 500.5C457.2623597208334 500.5 540.6790263875 614.8155901387499 582.3873597208334 671.9560068054167C600.9128125000001 696.6681943054166 583.9166666666667 735.2831598612499 551.4884375 735.2831598612499C532.9629847208333 735.2831598612499 522.1535777791667 722.9096875 512.8734736125 709.00690986125C486.5972236125 673.4853125 397.0285765279167 549.8896194458333 376.9390625000001 523.6481249999999C364.56559013875 506.6519791666666 369.2230208333333 488.1265263875 380.0324306945834 472.6596874999999C389.31253486125 460.2862138875 509.7801041666667 295.0169430541668 519.0602083333333 284.2075361125001C536.0563541666667 259.4953486124999 574.6713180541667 261.0246513875 588.5740986125 290.3942708333333C596.2901402791666 308.9197236124999 587.0447916666667 324.3865625 577.7646875 338.2893388875C565.3912138875 353.7214222208334 457.2623597208334 500.5 457.2623597208334 500.5z" />
    <glyph glyph-name="arrow-right"
      unicode="&#xEA08;"
      horiz-adv-x="1001" d="M500.5 917.5833333333334C270.3395140279167 917.5833333333334 83.4166666666667 730.6604859720833 83.4166666666667 500.5C83.4166666666667 270.3395152791667 270.3395140279167 83.4166666666666 500.5 83.4166666666666C730.6604847208333 83.4166666666666 917.5833333333334 270.3395152791667 917.5833333333334 500.5C917.5833333333334 730.6604859720833 730.6604847208333 917.5833333333334 500.5 917.5833333333334zM500.5 125.125C289.3581607583334 125.125 125.125 289.3581607583334 125.125 500.5C125.125 711.6418392416666 289.3581607583334 875.875 500.5 875.875C711.6418392416666 875.875 875.875 711.6418392416666 875.875 500.5C875.875 289.3581607583334 711.6418392416666 125.125 500.5 125.125zM481.9745472208334 716.7577083333333C464.9784013875 741.4698958333333 426.3634375000001 739.9405901387499 412.46065986125 710.5709723612499C404.7446181945833 692.0455208333333 413.98996513875 676.5786806945833 423.2700680541667 662.6759026387499C434.0794791666667 647.2438193054168 542.2083333333334 500.4652444458333 542.2083333333334 500.4652444458333C542.2083333333334 500.4652444458333 458.7916666666667 386.1496513875 417.0833333333334 329.0092347208333C398.5578818054167 304.2970472208334 415.55402763875 265.6820833333334 447.9822555541668 265.6820833333334C466.5077083333334 265.6820833333334 477.3171194458334 278.0555569458334 486.5972236125 291.9583333333333C512.8734736125 327.4799319458333 602.4421194458333 451.0756249999999 622.5316305541668 477.3171194458333C634.9051041666667 494.3132652791667 630.2476722208334 512.8387138875 619.4382652791668 528.3055569458334C610.1581611125 542.2083333333333 489.6905888875 705.9482984720833 481.9397916666667 716.7577083333333L481.9745472208334 716.7577083333333z" />
    <glyph glyph-name="arrow-up"
      unicode="&#xEA09;"
      horiz-adv-x="1001" d="M500.5 917.5833333333334C270.3395140279167 917.5833333333334 83.4166666666667 730.6604859720833 83.4166666666667 500.5C83.4166666666667 270.3395152791667 270.3395140279167 83.4166666666666 500.5 83.4166666666666C730.6604847208333 83.4166666666666 917.5833333333334 270.3395152791667 917.5833333333334 500.5C917.5833333333334 730.6604859720833 730.6604847208333 917.5833333333334 500.5 917.5833333333334zM500.5 125.125C289.3581607583334 125.125 125.125 289.3581607583334 125.125 500.5C125.125 711.6418392416666 289.3581607583334 875.875 500.5 875.875C711.6418392416666 875.875 875.875 711.6418392416666 875.875 500.5C875.875 289.3581607583334 711.6418392416666 125.125 500.5 125.125zM712.1350361125 588.53934013875C693.6095833333334 596.2553818054166 678.1427444458334 587.01003486125 664.2399638875 577.7299319458334C648.8078805541667 566.9205208333333 502.0293069458334 458.7916666666666 502.0293069458334 458.7916666666666C502.0293069458334 458.7916666666666 387.7137151387501 542.2083333333333 330.5732984720834 583.9166666666666C305.8611109720834 602.4421181945834 267.2461458333334 585.44597236125 267.2461458333334 553.0177444458333C267.2461458333334 534.4922916666667 279.6196181945834 523.6828805541666 293.5223958333334 514.4027763874999C329.0439931945833 488.1265263875 452.6396875 398.5578805541667 478.8811819458334 378.4683694458332C495.8773277791667 366.0948958333334 514.4027763875 370.7523277791667 529.8696194458333 381.5617347208332C542.2430888875 390.8418388875 707.5123597208333 511.3094111125 718.3217708333334 520.5895152791666C741.5046513875001 537.5856611125 741.5046513875001 576.200625 712.1350361125 588.57409736125L712.1350361125 588.53934013875z" />
    <glyph glyph-name="arw-down"
      unicode="&#xEA0A;"
      horiz-adv-x="1001" d="M500.0796926125 484.6141425124999C500.0796926125 484.6141425124999 649.5459971 598.5428478195834 778.5546226791668 691.7572415920833C834.0826035208335 733.1858609075 917.5833333333334 695.07153090375 917.5833333333334 622.5714469975001C917.5833333333334 581.1428289333334 889.6105885333333 560.42851865 862.0553483208333 536.3999182208333C785.6521839833334 481.2998565375 611.553167225 349.9711298416667 552.2676492666667 308.5425134458333C513.8573148041667 280.7853381666667 472.1069519833334 291.1424933083333 437.4541504666667 315.5853784416667C409.4814048325 336.2996887249999 145.2016011279167 529.7713379291666 120.9863901079167 550.4856482125C68.7984351220833 591.9142687791666 68.7984351220833 674.7715074099999 134.7640102141667 702.5286826891667C176.5143738691667 719.9287028266667 211.16717622 699.2143929604167 242.47994896125 678.5000830941667C277.5502546483334 650.3286222766667 500.0796926125 484.6141425124999 500.0796926125 484.6141425124999z" />
    <glyph glyph-name="arw-left"
      unicode="&#xEA0B;"
      horiz-adv-x="1001" d="M484.6450817541667 500.8579200625C484.6450817541667 500.8579200625 598.6457477 351.2748030458333 691.9190194583333 222.5637497416666C733.3738036625001 166.9049173458333 695.3735830708334 83.4166666666666 622.8277055 83.4166666666666C581.3729212958334 83.4166666666666 560.6455271083333 111.24608495 536.4635651375 139.0754990624998C481.1905181416667 215.6063993416666 349.9170257916667 389.5402552708333 308.462239085 448.6777628666667C280.8257143358334 486.9432109208333 291.1894110125 528.6873383458333 315.37137006375 563.4741111999999C336.0987634170833 591.3035261466666 529.5544379125 855.6829873258333 550.2818279291666 880.0337274895833C588.2820526916666 932.2138842683333 674.6461888833334 932.2138842683333 702.2827144666667 866.119018765C719.5555408708334 824.3748934254166 698.8281508541667 789.5881222395833 678.1007566666667 758.2800279220833C650.4642310833334 723.49325673625 484.6450817541667 500.8579200625 484.6450817541667 500.8579200625z" />
    <glyph glyph-name="arw-right"
      unicode="&#xEA0C;"
      horiz-adv-x="1001" d="M516.3549182458333 500.1420799374999C516.3549182458333 500.1420799374999 402.3542523 649.7251948687499 309.0809817929167 778.43624859C267.6261946691667 834.0950822370833 305.626416095 917.5833333333334 378.17229324875 917.5833333333334C419.6270787041667 917.5833333333334 440.3544728916667 889.75391630125 464.5364348625 861.9244992691666C519.8094818583334 785.39360274375 651.0829742083333 611.4597468145832 692.5377625833333 552.3222371333334C720.1742839958334 514.0567890791666 709.8105889875001 472.3126616541666 685.6286311875 437.5258888C664.901237 409.6964746875 471.4455620875 145.3170135083333 450.7181720708334 120.9662745958334C412.7179489766667 68.7861174 326.3538098654167 68.7861174 298.7172851162501 134.8809795666666C281.4444570437501 176.6251069916666 302.1718503970834 211.4118798458334 322.8992441675 242.7199733291666C350.5357689166667 277.5067420124999 516.3549182458333 500.1420799374999 516.3549182458333 500.1420799374999z" />
    <glyph glyph-name="arw-up"
      unicode="&#xEA0D;"
      horiz-adv-x="1001" d="M242.47994896125 322.5220873875001C211.16717622 301.7927412500001 176.5143738691667 281.0633951125001 134.7640102141667 298.4760445333333C68.7984351220833 326.2533732791666 68.7984351220833 409.170762 120.9863901079167 450.6294584458333C145.2016011279167 471.3588045833334 409.8989081687501 664.97091035375 437.4541504666667 685.7002577425001C472.1069519833334 709.74630101375 513.8573148041667 720.1109749166667 552.2676492666667 692.7482357629167C611.553167225 651.2895409854166 785.2346793958334 519.8654794666667 862.0553483208333 464.72541115C890.0280931208334 440.6793682958334 917.5833333333334 419.9500221583334 917.5833333333334 378.4913257125001C917.5833333333334 305.9386121458333 834.0826035208335 267.7966124166667 778.5546226791668 309.2553046916667C649.9635016875001 402.5373685666666 500.0796926125 516.54878275 500.0796926125 516.54878275C500.0796926125 516.54878275 277.5502546483334 350.2994161333333 242.47994896125 322.5220873875001z" />
    <glyph glyph-name="bell-o"
      unicode="&#xEA0E;"
      horiz-adv-x="1001" d="M519.8065497625 128.0812032499999C519.8065497625 133.0400654916666 517.3271186416666 135.5194966125 512.3682522291667 135.5194966125C494.0621644291667 135.5194966125 478.3166137750001 142.1120075375 465.1315960958333 155.2970210458333C451.9465825875 168.482038725 445.3540716625 184.22759355 445.3540716625 202.5336771791666C445.3540716625 207.4925435916667 442.8746405416667 209.9719747124999 437.9157741291667 209.9719747124999C432.9569118875001 209.9719747124999 430.4774807666667 207.4925435916667 430.4774807666667 202.5336771791666C430.4774807666667 179.8712081833334 438.471908875 160.5571258958333 454.4607692625 144.5914386583334C470.44962965 128.6257514208334 489.7637119375 120.6313191416666 512.4030119541667 120.6081459916666C517.3618741958334 120.6081459916666 519.8413094875 123.0875771125 519.8413094875 128.046443525L519.8065497625 128.0812032499999zM209.7964447745834 262.1443199375L814.9748189916668 262.1443199375C732.4120512041667 355.250470575 691.130665225 484.3547250208334 691.130665225 649.45709203375C691.130665225 665.2837466275 687.4115206291667 681.57384670375 679.9732230958333 698.3273922625C672.5349255625 715.0809374041667 661.8293431750001 731.0582120508334 647.8564675916667 746.2592157854167C633.8835961791667 761.46021952 615.0329602083334 773.9500685583333 591.30456385 783.7287629004167C567.5761674916668 793.5074576595833 541.2756515833333 798.3968046220833 512.4030119541667 798.3968046220833C483.530372325 798.3968046220833 457.2298564166667 793.5074576595833 433.5014600583334 783.7287629004167C409.7730641170834 773.9500685583333 390.9224289804168 761.46021952 376.9495550654167 746.2592157854167C362.9766811504167 731.0582120508334 352.2710962604167 715.0809374041667 344.8328003954167 698.3273922625C337.3945041133333 681.57384670375 333.6753561808334 665.2837466275 333.6753561808334 649.45709203375C333.6753561808334 484.3547250208334 292.4055580279167 355.250470575 209.865961305 262.1443199375L209.7964447745834 262.1443199375zM899.6810239083335 262.1443199375C899.6810239083335 246.0164289916666 893.7836824583334 232.0551399833334 881.9889995583334 220.2604570833333C870.1943208291667 208.4657783541667 856.2330318208333 202.5684369041666 840.1051367041666 202.5684369041666L631.5547821916667 202.5684369041666C631.5547821916667 169.6638234958333 619.9223071708334 141.5790417708333 596.6573571291667 118.3140917291667C573.3924029166667 95.0491416874999 545.3076253625001 83.4166666666666 512.4030119541667 83.4166666666666C479.4983985458334 83.4166666666666 451.4136168208334 95.0491416874999 428.1486667791667 118.3140917291667C404.8837167375001 141.5790417708333 393.2512412995834 169.6638234958333 393.2512412995834 202.5684369041666L184.70088511875 202.5684369041666C168.57299083625 202.5684369041666 154.6117030791667 208.4657783541667 142.8170218475 220.2604570833333C131.0223406158334 232.0551399833334 125.125 246.0164289916666 125.125 262.1443199375C140.6504153220834 275.1903070583333 154.7739088729167 288.8503534583333 167.4954806525 303.1244674791666C180.2170524320833 317.3985815 193.4020692770834 335.9363882875 207.0505316045834 358.7378961833333C220.6989939320834 381.5393999083333 232.2619524225 406.136756025 241.7394074929167 432.5299645333334C251.2168625633334 458.9231688708333 258.9795704329167 490.8893030708333 265.0275306845834 528.4283671333333C271.07549093625 565.9674311958333 274.0994710620834 606.3103404691667 274.0994710620834 649.45709203375C274.0994710620834 696.6358169604166 292.2549383920834 740.4661501737501 328.565872635 780.94809167375C364.8768068779167 821.4300327566666 412.51897687 846.0273888733333 471.4923838625 854.7401591895833C469.0129527416667 860.6259136475 467.7732350958333 866.67387431625 467.7732350958333 872.8840403616666C467.7732350958333 885.3043724525 472.1180338875001 895.8593377066667 480.8076314708334 904.5489361241666C489.4972290541667 913.2385341245835 500.0521943083334 917.5833333333334 512.4725272333334 917.5833333333334C524.8928601583334 917.5833333333334 535.4478254125 913.2385341245835 544.1374229958334 904.5489361241666C552.8270205791667 895.8593377066667 557.1718193708334 885.3043724525 557.1718193708334 872.8840403616666C557.1718193708334 866.67387431625 555.9321058958334 860.6259136475 553.452674775 854.7401591895833C612.4260809333334 846.0505611891667 660.0682505083333 821.4532050724999 696.3791835000001 780.94809167375C732.6901164916668 740.4429778579167 750.8455871583333 696.6126446445833 750.8455871583333 649.45709203375C750.8455871583333 606.3103404691667 753.86956645 565.9674311958333 759.9175250333334 528.4283671333333C765.9654877875001 490.8893030708333 773.7281927375001 458.9231688708333 783.2056482250001 432.5299645333334C792.6831037125 406.136756025 804.2460634541667 381.5393999083333 817.8945232791667 358.7378961833333C831.5429872750001 335.9363882875 844.7280049541667 317.3985815 857.4495763166667 303.1244674791666C870.1711476791668 288.8503534583333 884.2946403958334 275.1903070583333 899.8200586375001 262.1443199375L899.6810239083335 262.1443199375z" />
    <glyph glyph-name="burger"
      unicode="&#xEA0F;"
      horiz-adv-x="1001" d="M83.4166666666667 500.5C83.4166666666667 535.0345 111.1527083333333 563.0625 146.1042916666667 563.0625L854.854 563.0625C889.4719166666667 563.0625 917.541625 535.28475 917.541625 500.5C917.541625 465.9655 889.8055833333334 437.9375 854.854 437.9375L146.1042916666667 437.9375C111.486375 437.9375 83.4166666666667 465.71525 83.4166666666667 500.5zM83.4166666666667 771.6041666666666C83.4166666666667 806.1386666666667 111.1527083333333 834.1666666666666 146.1042916666667 834.1666666666666L854.854 834.1666666666666C889.4719166666667 834.1666666666666 917.541625 806.3889166666667 917.541625 771.6041666666666C917.541625 737.0696666666666 889.8055833333334 709.0416666666666 854.854 709.0416666666666L146.1042916666667 709.0416666666666C111.486375 709.0416666666666 83.4166666666667 736.8194166666667 83.4166666666667 771.6041666666666zM83.4166666666667 229.3958333333333C83.4166666666667 263.9303333333333 111.1527083333333 291.9583333333333 146.1042916666667 291.9583333333333L854.854 291.9583333333333C889.4719166666667 291.9583333333333 917.541625 264.1805833333333 917.541625 229.3958333333333C917.541625 194.8613333333333 889.8055833333334 166.8333333333333 854.854 166.8333333333333L146.1042916666667 166.8333333333333C111.486375 166.8333333333333 83.4166666666667 194.6110833333334 83.4166666666667 229.3958333333333z" />
    <glyph glyph-name="calendar"
      unicode="&#xEA10;"
      horiz-adv-x="1001" d="M174.2018056945834 181.5355208333333C174.2018056945834 154.3903486125 196.1681943054167 132.4934736124999 223.3828818054167 132.4934736124999L811.9917347208334 132.4934736124999C839.2064222208335 132.4934736124999 861.1728125000001 154.4251041666667 861.1728125000001 181.5355208333333L861.1728125000001 721.3108681945832C861.1728125000001 748.4560416666667 839.2064222208335 770.3529166666666 811.9917347208334 770.3529166666666L223.3828818054167 770.3529166666666C196.1681943054167 770.3529166666666 174.2018056945834 748.42128486125 174.2018056945834 721.3108681945832L174.2018056945834 181.5355208333333zM321.39746513875 819.42972236125L713.9423958333333 819.42972236125L713.9423958333333 892.9754166666667C713.9423958333333 906.5653818054166 724.8213180541668 917.5833333333334 738.4807972208333 917.5833333333334C752.0360055541668 917.5833333333334 763.0192027791668 906.8434375 763.0192027791668 892.9754166666667L763.0192027791668 819.42972236125L811.9917347208334 819.42972236125C866.2473277791667 819.42972236125 910.2496194458334 775.6012151387499 910.2496194458334 721.3108681945832L910.2496194458334 181.5355208333333C910.2496194458334 127.3494430541665 866.3515986125001 83.4166666666666 811.9917347208334 83.4166666666666L223.3828818054167 83.4166666666666C169.1272916666667 83.4166666666666 125.125 127.2451722208333 125.125 181.5355208333333L125.125 721.3108681945832C125.125 775.4969443054167 169.0230208333334 819.42972236125 223.3828818054167 819.42972236125L272.3554166666667 819.42972236125L272.3554166666667 892.9754166666667C272.3554166666667 906.5653818054166 283.23434013875 917.5833333333334 296.8938193054167 917.5833333333334C310.44902763875 917.5833333333334 321.43222236125 906.8434375 321.43222236125 892.9754166666667L321.43222236125 819.42972236125L321.39746513875 819.42972236125zM174.2018056945834 696.77246513875L861.1728125000001 696.77246513875L861.1728125000001 647.6956598612501L174.2018056945834 647.6956598612501L174.2018056945834 696.77246513875zM468.593125 537.3076041666666C468.593125 557.6404166666666 485.2417027791667 574.1152083333334 505.4007291666667 574.1152083333334L529.9043750000001 574.1152083333334C550.2371875000001 574.1152083333334 566.7119791666668 557.7794430541667 566.7119791666668 537.3076041666666C566.7119791666668 516.9747916666666 550.0634013875 500.5 529.9043750000001 500.5L505.4007291666667 500.5C485.0679166666667 500.5 468.593125 516.8357652791667 468.593125 537.3076041666666zM664.8655888875 537.3076041666666C664.8655888875 557.6404166666666 681.5141666666667 574.1152083333334 701.6731930541667 574.1152083333334L726.1768388875 574.1152083333334C746.5096513875001 574.1152083333334 762.9844430541667 557.7794430541667 762.9844430541667 537.3076041666666C762.9844430541667 516.9747916666666 746.3358694458334 500.5 726.1768388875 500.5L701.6731930541667 500.5C681.3403805541667 500.5 664.8655888875 516.8357652791667 664.8655888875 537.3076041666666zM272.32065986125 390.1119430541666C272.32065986125 410.4447555541666 288.9692359720834 426.9195472208333 309.1282640279167 426.9195472208333L333.6319098612501 426.9195472208333C353.9647223612501 426.9195472208333 370.4395140279167 410.5837861125 370.4395140279167 390.1119430541666C370.4395140279167 369.7791305541666 353.7909375000001 353.3043388875 333.6319098612501 353.3043388875L309.1282640279167 353.3043388875C288.7954515279167 353.3043388875 272.32065986125 369.6401041666667 272.32065986125 390.1119430541666zM468.593125 390.1119430541666C468.593125 410.4447555541666 485.2417027791667 426.9195472208333 505.4007291666667 426.9195472208333L529.9043750000001 426.9195472208333C550.2371875000001 426.9195472208333 566.7119791666668 410.5837861125 566.7119791666668 390.1119430541666C566.7119791666668 369.7791305541666 550.0634013875 353.3043388875 529.9043750000001 353.3043388875L505.4007291666667 353.3043388875C485.0679166666667 353.3043388875 468.593125 369.6401041666667 468.593125 390.1119430541666zM664.8655888875 390.1119430541666C664.8655888875 410.4447555541666 681.5141666666667 426.9195472208333 701.6731930541667 426.9195472208333L726.1768388875 426.9195472208333C746.5096513875001 426.9195472208333 762.9844430541667 410.5837861125 762.9844430541667 390.1119430541666C762.9844430541667 369.7791305541666 746.3358694458334 353.3043388875 726.1768388875 353.3043388875L701.6731930541667 353.3043388875C681.3403805541667 353.3043388875 664.8655888875 369.6401041666667 664.8655888875 390.1119430541666zM272.32065986125 242.8815263875C272.32065986125 263.2143388875 288.9692359720834 279.6891305541666 309.1282640279167 279.6891305541666L333.6319098612501 279.6891305541666C353.9647223612501 279.6891305541666 370.4395140279167 263.3533694458333 370.4395140279167 242.8815263875C370.4395140279167 222.5487138875 353.7909375000001 206.0739222208333 333.6319098612501 206.0739222208333L309.1282640279167 206.0739222208333C288.7954515279167 206.0739222208333 272.32065986125 222.4096874999999 272.32065986125 242.8815263875zM468.593125 242.8815263875C468.593125 263.2143388875 485.2417027791667 279.6891305541666 505.4007291666667 279.6891305541666L529.9043750000001 279.6891305541666C550.2371875000001 279.6891305541666 566.7119791666668 263.3533694458333 566.7119791666668 242.8815263875C566.7119791666668 222.5487138875 550.0634013875 206.0739222208333 529.9043750000001 206.0739222208333L505.4007291666667 206.0739222208333C485.0679166666667 206.0739222208333 468.593125 222.4096874999999 468.593125 242.8815263875zM664.8655888875 242.8815263875C664.8655888875 263.2143388875 681.5141666666667 279.6891305541666 701.6731930541667 279.6891305541666L726.1768388875 279.6891305541666C746.5096513875001 279.6891305541666 762.9844430541667 263.3533694458333 762.9844430541667 242.8815263875C762.9844430541667 222.5487138875 746.3358694458334 206.0739222208333 726.1768388875 206.0739222208333L701.6731930541667 206.0739222208333C681.3403805541667 206.0739222208333 664.8655888875 222.4096874999999 664.8655888875 242.8815263875z" />
    <glyph glyph-name="camera"
      unicode="&#xEA11;"
      horiz-adv-x="1001" d="M500.4837796291666 583.9344415070834C534.9582112875 583.9344415070834 564.4258494875 571.6932054166666 588.8866942291668 547.2107349041667C613.3475389708334 522.7282643916666 625.5887721416667 493.2606261916666 625.6104020833334 458.8078203041666C625.6320278541667 424.3550144166667 613.3907946833334 394.8873762166667 588.8866942291668 370.4049057041666C564.3825979458334 345.9224310208333 534.914955575 333.68119785 500.4837796291666 333.68119785C466.0525995125 333.68119785 436.5849613125 345.9224310208333 412.0808637779167 370.4049057041666C387.5767649920834 394.8873762166667 375.3355297358334 424.3550144166667 375.357157175 458.8078203041666C375.37878503125 493.2606261916666 387.6200202875 522.7282643916666 412.0808637779167 547.2107349041667C436.5417056000001 571.6932054166666 466.0093438 583.9344415070834 500.4837796291666 583.9344415070834zM806.3740893541667 764.6656863679166C837.0853157333335 764.6656863679166 863.2979938916667 753.8086188966666 885.0121321708334 732.0944835370833C906.7262662791668 710.3803485945833 917.5833333333334 684.1676675166666 917.5833333333334 653.4564407204167L917.5833333333334 264.1591994708334C917.5833333333334 233.4479730916666 906.7262662791668 207.2352907625 885.0121321708334 185.5211566541667C863.2979938916667 163.807018375 837.0853157333335 152.9499513208332 806.3740893541667 152.9499513208332L194.6259123141667 152.9499513208332C163.9146855179167 152.9499513208332 137.70200444 163.807018375 115.9878694975 185.5211566541667C94.2737341379167 207.2352907625 83.4166666666667 233.4479730916666 83.4166666666667 264.1591994708334L83.4166666666667 653.4564407204167C83.4166666666667 684.1676675166666 94.2737341379167 710.3803485945833 115.9878694975 732.0944835370833C137.70200444 753.8086188966666 163.9146855179167 764.6656863679166 194.6259123141667 764.6656863679166L291.9502231479167 764.6656863679166L314.1077243470833 823.7415427908334C319.6011410258334 837.9292646725 329.6688002941667 850.1705003458333 344.3107021520834 860.46524939375C358.95260401 870.75999885875 373.9405478141668 875.8965594545833 389.2745335645834 875.8749320154167L611.72546435 875.8749320154167C627.081079625 875.8749320154167 642.0690234291667 870.7383710025 656.6892999333334 860.46524939375C671.3095722666667 850.192127785 681.3772298666668 837.9508921116667 686.8922769041667 823.7415427908334L709.0497789375 764.6656863679166L806.3740893541667 764.6656863679166zM500.4837796291666 264.1591994708334C554.0770318416667 264.1591994708334 599.9167841333334 283.2023235708333 638.0030281625001 321.2885676C676.0892763625001 359.3748158 695.1324004625001 405.2145639208333 695.1324004625001 458.8078203041666C695.1324004625001 512.4010725166667 676.0892763625001 558.2408248083334 638.0030281625001 596.3270705058333C599.9167841333334 634.4133170375001 554.0770318416667 653.4564407204167 500.4837796291666 653.4564407204167C446.8905274166667 653.4564407204167 401.0507751250001 634.4133170375001 362.96452817625 596.3270705058333C324.8782812275 558.2408248083334 305.8351579616667 512.4010725166667 305.8351579616667 458.8078203041666C305.8351579616667 405.2145639208333 324.8782812275 359.3748158 362.96452817625 321.2885676C401.0507751250001 283.2023235708333 446.8905274166667 264.1591994708334 500.4837796291666 264.1591994708334z" />
    <glyph glyph-name="cart-copy"
      unicode="&#xEA12;"
      horiz-adv-x="1001" d="M83.4166666666667 840.98851461625L83.4166666666667 875.875L260.1775384541667 875.1692929145834L288.79802576625 769.8041292608333L917.5833333333334 769.0984221754167L820.8732865666668 419.9574212166666L384.7971982020834 419.9574212166666L403.99085101375 349.8469391083334L823.4077142958333 349.8469391083334L823.4077142958333 279.736457L788.2657115666667 279.736457L788.2657115666667 314.9604541416667L399.9728561995833 314.9604541416667L399.9728561995833 279.736457L364.4908696595833 279.736457L364.4908696595833 349.8469391083334L233.0097106837501 841.01919776875L83.4166666666667 841.01919776875L83.4166666666667 840.98851461625zM298.5648444945834 734.5801317020833L317.3876055350001 665.5435515895833L434.0021811125 665.5435515895833L422.7827061791667 734.5801317020833L298.5339365341667 734.5801317020833L298.5648444945834 734.5801317020833zM327.1853318066667 630.6570662058334L346.3789846183334 559.4726804333334L451.7740852625001 559.4726804333334L440.1837148041667 630.6570662058334L327.1853318066667 630.6570662058334zM344.5554328883334 184.0670957125C344.5554328883334 192.2082996166665 346.1214210620834 199.8790293499999 349.2533965754168 207.0792890833333C352.3853720887501 214.2795488166667 356.609418165 220.5695491999999 361.9255343870834 225.9492902333333C367.24165102625 231.3290270958334 373.5159044283334 235.5837275458332 380.7482954275001 238.7133874124999C387.9806864266667 241.8430431083333 395.7076002045834 243.3976461583334 403.9290359270834 243.3771923916667C412.1504716495834 243.3567344541666 419.8773870958334 241.802135575 427.1097747583334 238.7133874124999C434.3421665916667 235.62463925 440.6164220791668 231.3699387999999 445.9325370500001 225.9492902333333C451.2486520208334 220.5286416666667 455.4727010166667 214.2386412833333 458.6046756958334 207.0792890833333C461.736650375 199.9199410541667 463.3026398000001 192.2492113208333 463.3026398000001 184.0670957125C463.3026398000001 175.884984275 461.736650375 168.2756200124999 458.6046756958334 161.2390029249999C455.4727010166667 154.2023858375001 451.2486520208334 147.9737509249999 445.9325370500001 142.5531023583333C440.6164220791668 137.1324496208333 434.3421665916667 132.8777533416666 427.1097747583334 129.7890051791666C419.8773870958334 126.7002570166667 412.1504716495834 125.1456539666666 403.9290359270834 125.1252001999999C395.7076002045834 125.1047422625001 387.9806864266667 126.6593453124999 380.7482954275001 129.7890051791666C373.5159044283334 132.918660875 367.24165102625 137.1733613249999 361.9255343870834 142.5531023583333C356.609418165 147.9328392208333 352.3853720887501 154.1614741333333 349.2533965754168 161.2390029249999C346.1214210620834 168.3165275458332 344.5554328883334 175.9258959791665 344.5554328883334 184.0670957125zM356.1458033466667 524.2179984708333L374.9685643870834 454.8132255333334L469.5150751958333 454.8132255333334L457.9247089083333 524.2179984708333L356.1458033466667 524.2179984708333zM458.6664916166667 734.5801317020833L469.8859707208334 665.5435515895833L576.7337284041666 665.5435515895833L576.7337284041666 734.5801317020833L458.6664916166667 734.5801317020833zM475.6656988416667 630.6570662058334L487.6269606541667 559.4726804333334L576.7337284041666 559.4726804333334L576.7337284041666 630.6570662058334L475.6656988416667 630.6570662058334zM493.4376029916667 524.2179984708333L505.0279692791667 454.8132255333334L576.7337284041666 454.8132255333334L576.7337284041666 524.2179984708333L493.4376029916667 524.2179984708333zM611.8757311333334 454.8132255333334L682.1288265458335 454.8132255333334L693.7191970041667 524.2179984708333L611.8757311333334 524.2179984708333L611.8757311333334 454.8132255333334zM611.8757311333334 559.4419997833334L699.5298351708333 559.4419997833334L711.4910969833334 630.6263830533333L611.8757311333334 630.6263830533333L611.8757311333334 559.4419997833334zM611.8757311333334 665.5435515895833L717.2708292750001 665.5435515895833L728.4903083791667 734.5801317020833L611.8757311333334 734.5801317020833L611.8757311333334 665.5435515895833zM717.6417206291667 454.8132255333334L792.2527988375001 454.8132255333334L811.8173438375001 524.2179984708333L729.2320910875 524.2179984708333L717.6417206291667 454.8132255333334zM732.8482870041668 184.0670957125C732.8482870041668 192.2082996166665 734.4142764291666 199.8790293499999 737.5462511083334 207.0792890833333C740.6782257875 214.2795488166667 744.9022706124999 220.5695491999999 750.2183897541668 225.9492902333333C755.534504725 231.3290270958334 761.8087602125001 235.5837275458332 769.041147875 238.7133874124999C776.2735397083334 241.8430431083333 784.0004547375 243.3976461583334 792.2218887916666 243.3771923916667C800.4433270166667 243.3567344541666 808.1702378750001 241.802135575 815.4026297083334 238.7133874124999C822.6350215416668 235.62463925 828.9092728583333 231.3699387999999 834.225392 225.9492902333333C839.5415069708333 220.5286416666667 843.7655517958334 214.2386412833333 846.8975306458333 207.0792890833333C850.0295053250001 199.9199410541667 851.5954905791667 192.2492113208333 851.5954905791667 184.0670957125C851.5954905791667 175.884984275 850.0295053250001 168.2756200124999 846.8975306458333 161.2390029249999C843.7655517958334 154.2023858375001 839.5415069708333 147.9737509249999 834.225392 142.5531023583333C828.9092728583333 137.1324496208333 822.6350215416668 132.8777533416666 815.4026297083334 129.7890051791666C808.1702378750001 126.7002570166667 800.4433270166667 125.1456539666666 792.2218887916666 125.1252001999999C784.0004547375 125.1047422625001 776.2735397083334 126.6593453124999 769.041147875 129.7890051791666C761.8087602125001 132.918660875 755.534504725 137.1733613249999 750.2183897541668 142.5531023583333C744.9022706124999 147.9328392208333 740.6782257875 154.1614741333333 737.5462511083334 161.2390029249999C734.4142764291666 168.3165275458332 732.8482870041668 175.9258959791665 732.8482870041668 184.0670957125zM735.3827147333334 559.4419997833334L821.5841592291666 559.4419997833334L841.5195955833333 630.6263830533333L746.9730851916668 630.6263830533333L735.3827147333334 559.4419997833334zM753.1237088375001 665.5435515895833L851.2864151458333 665.5435515895833L870.4800687916667 734.5801317020833L764.3431879416668 734.5801317020833L753.1237088375001 665.5435515895833z" />
    <glyph glyph-name="cart-drop"
      unicode="&#xEA13;"
      horiz-adv-x="1001" d="M720.3595190458334 253.2338850708334C673.1695220250001 253.2338850708334 634.9587285708334 214.7336149291667 634.9587285708334 169.4644326375C634.9587285708334 121.9169326374998 673.1695220250001 85.694984375 720.3595190458334 85.694984375C767.5495202375 85.694984375 805.7603136916667 124.1952503458333 805.7603136916667 169.4644326375C805.7603136916667 214.7336149291667 767.5495202375 253.2338850708334 720.3595190458334 253.2338850708334zM437.2195202375001 253.2338850708334C390.0295207141667 253.2338850708334 351.8187293454167 214.7336149291667 351.8187293454167 169.4644326375C351.8187293454167 121.9169326374998 390.0295207141667 85.694984375 437.2195202375001 85.694984375C484.4095214291667 85.694984375 522.6203107125 124.1952503458333 522.6203107125 169.4644326375C522.6203107125 214.7336149291667 484.4095214291667 253.2338850708334 437.2195202375001 253.2338850708334zM906.8583315458332 762.652515625L828.2083351208333 762.652515625L781.0183339291667 463.7966666666666C776.5287279750002 441.1455673625 756.3091244041666 423.0510993041667 733.8283327375001 423.0510993041667L437.2195202375001 423.0510993041667C414.7387289879167 423.0510993041667 392.2907083929167 441.1785836791667 387.7683334525 463.7966666666666L311.3795209525 853.2238994445834C306.8899166666667 875.875 255.2103124404167 875.875 232.72952077375 875.875L86.6699166666667 875.875C64.189125 875.875 41.7411039879167 853.2238994445834 41.7411039879167 830.6058177083333L41.7411039879167 807.9547171529166C41.7411039879167 785.3036161804166 64.2218956545833 762.68553486125 86.6699166666667 762.68553486125L165.3199168454167 762.68553486125C187.8007085120834 762.68553486125 210.2487291070834 744.55805048625 214.7711040475 721.9399687499999L288.9314999404167 350.6072027791667C293.42110422625 327.9560993041667 315.9018958929167 309.8616354166666 338.3826875595834 309.8616354166666L823.7514994041667 309.8616354166666C846.2322910708334 309.8616354166666 868.6803125000001 327.9891197916667 873.2026886916667 350.6072027791667L940.6122934541665 721.9399687499999C945.1018952375002 744.5910693054166 929.3718976208334 762.68553486125 906.8911059541668 762.68553486125L906.8583315458332 762.652515625zM578.7895196416667 504.5422340291666C585.5403136916667 497.7402972208333 599.0091232125001 502.2639163208333 603.4987291666667 504.5422340291666L724.8491250000001 624.5336318054167C738.3179386916667 638.10448076375 738.3179386916667 658.5102828470833 724.8491250000001 672.0811318054166C724.8491250000001 672.0811318054166 693.3891255958334 669.8028140970832 693.3891255958334 672.0811318054166L625.9795208333334 604.1608489583333L625.9795208333334 819.2472484029166C625.9795208333334 837.3747327779167 610.2495190458334 853.2238994445834 592.2583333333333 853.2238994445834C574.2671476208334 853.2238994445834 558.5371458333334 837.3747327779167 558.5371458333334 819.2472484029166L558.5371458333334 606.4061474304167C529.338334525 638.10448076375 491.1275410708333 672.0811318054166 491.1275410708333 672.0811318054166C491.1275410708333 672.0811318054166 457.4063535708334 672.0811318054166 457.4063535708334 672.0811318054166C443.9375398791667 658.5102828470833 443.9375398791667 638.10448076375 457.4063535708334 624.5336318054167L578.7567494041667 504.5422340291666L578.7895196416667 504.5422340291666z" />
    <glyph glyph-name="cart-empty"
      unicode="&#xEA14;"
      horiz-adv-x="1001" d="M692.2215633666667 376.5636291083333C644.0902718250001 376.5636291083333 605.1172961166667 337.9523564083334 605.1172961166667 292.5526478874999C605.1172961166667 244.8680567666667 644.0902718250001 208.5416666666666 692.2215633666667 208.5416666666666C740.3528549083334 208.5416666666666 779.3258306166667 247.1529393666666 779.3258306166667 292.5526478874999C779.3258306166667 337.9523564083334 740.3528549083334 376.5636291083333 692.2215633666667 376.5636291083333zM403.4338128654167 376.5636291083333C355.30252132375 376.5636291083333 316.3295447812501 337.9523564083334 316.3295447812501 292.5526478874999C316.3295447812501 244.8680567666667 355.30252132375 208.5416666666666 403.4338128654167 208.5416666666666C451.5651056583333 208.5416666666666 490.5380813666667 247.1529393666666 490.5380813666667 292.5526478874999C490.5380813666667 337.9523564083334 451.5651056583333 376.5636291083333 403.4338128654167 376.5636291083333zM882.4404380458334 887.4510624145834L302.55864764125 887.4510624145834C279.629435085 887.4510624145834 256.7336467529167 905.6308135875 252.1210646120834 928.3141096395834L245.2356160420834 962.3887252145834C240.6564585425 982.8202488270834 217.72724598625 1001 194.79803343 1001L45.82500047125 1001C22.8957880818333 1001 0 978.2835896166666 0 955.6002935645834L0 932.88388318125C0 910.1674727979166 22.92921255625 887.4841767458333 45.82500047125 887.4841767458333L126.0438199854167 887.4841767458333C148.9730325416667 887.4841767458333 171.86882087375 869.3044255729167 176.4814030145834 846.6211295208333L252.1210646120834 474.2177022916666C256.7002225287501 451.5012919083333 279.629435085 433.3546550666666 302.55864764125 433.3546550666666L797.6090372250001 433.3546550666666C820.5382518666667 433.3546550666666 843.4340372791667 451.5344041541666 848.0466202541667 474.2177022916666L916.80083495 846.6211295208333C921.3799928666668 869.3375399041666 905.3362276291668 887.4841767458333 882.4070129875 887.4841767458333L882.4404380458334 887.4510624145834zM779.2924055583334 733.0721919354166L754.0903286583334 587.7335255458333C749.5111707416668 565.0171151625 728.8882475875001 546.8704783208333 705.9590371166668 546.8704783208333L403.4338128654167 546.8704783208333C380.5046003091667 546.8704783208333 357.6088123941667 565.0502274083333 352.9962302533334 587.7335255458333L323.2149933512501 735.323964375C318.6358358516667 758.0403747583333 334.6795998379167 776.1870116 357.6088123941667 776.1870116L744.9654378833334 776.1870116C767.8946483541667 773.9021248291667 781.6321221041667 755.7554879874999 779.3592556750001 733.0390776041667L779.2924055583334 733.0721919354166z" />
    <glyph glyph-name="cart-full"
      unicode="&#xEA15;"
      horiz-adv-x="1001" d="M875.440040475 887.777515625L322.6288540475 887.777515625C300.1480623808333 887.777515625 279.9284583929167 905.905 275.4388541070834 928.52308173625L268.6880625595834 962.4997326527916C261.9372710120834 982.872515625 241.7176666070834 1001 219.2368749404167 1001L77.6668751191667 1001C55.1860834525 1001 32.738062482125 978.3488993194584 32.738062482125 955.7308177083333L32.738062482125 933.0797171529168C32.738062482125 910.4286161804166 55.2188541070833 887.81053486125 77.6668751191667 887.81053486125L154.0556876191667 887.81053486125C176.5364792858334 887.81053486125 196.75608327375 869.68305048625 201.2456875595834 847.0649687499999L273.14489577375 473.4869013875C277.6345000595834 450.8358020833333 297.8541040475 432.7413381958334 320.3348957141667 432.7413381958334L792.2348976208333 432.7413381958334C814.7156892875 432.7413381958334 834.9352928583334 450.8688225708332 839.4248946416667 473.4869013875L906.8344994041668 847.0649687499999C913.5852934541668 869.7160693054167 897.8552916666667 887.81053486125 875.3745 887.81053486125L875.440040475 887.777515625zM774.3420226208334 684.0166666666667L369.8516250595834 684.0166666666667L347.3708333929167 797.2391510416667L796.7900398791667 797.2391510416667L774.3092482125 684.0166666666667L774.3420226208334 684.0166666666667zM695.692022025 378.3588850708333C650.7632089291667 378.3588850708333 612.5524154750001 339.8586149291666 612.5524154750001 294.5894326375C612.5524154750001 247.0419326375 650.7632089291667 210.819984375 695.692022025 210.819984375C740.6208351208335 210.819984375 778.8316244041667 249.3202503458333 778.8316244041667 294.5894326375C778.8316244041667 339.8586149291666 740.6208351208335 378.3588850708333 695.692022025 378.3588850708333zM419.2700428583334 378.3588850708333C374.3412293454167 378.3588850708333 336.1304375595834 339.8586149291666 336.1304375595834 294.5894326375C336.1304375595834 247.0419326375 374.3412293454167 210.819984375 419.2700428583334 210.819984375C464.1988559541667 210.819984375 502.4096452375 249.3202503458333 502.4096452375 294.5894326375C502.4096452375 339.8586149291666 464.1988559541667 378.3588850708333 419.2700428583334 378.3588850708333z" />
    <glyph glyph-name="cart-nav"
      unicode="&#xEA16;"
      horiz-adv-x="1001" d="M853.8530000000001 667.3333333333333L737.5284583333333 667.3333333333333L746.3289166666666 750.75L868.5343333333335 750.75L853.8530000000001 667.3333333333333zM831.831 542.2083333333333L724.3069166666667 542.2083333333333L733.1490833333334 625.625L846.5123333333333 625.625L831.831 542.2083333333333zM809.8090000000001 417.0833333333333L711.1270833333334 417.0833333333333L719.9275416666667 500.5L824.4903333333334 500.5L809.8090000000001 417.0833333333333zM698.7814166666668 667.3333333333333L582.4568750000001 667.3333333333333L583.4161666666666 750.75L705.6215833333333 750.75L698.7814166666668 667.3333333333333zM688.4794583333335 542.2083333333333L580.9970833333333 542.2083333333333L581.956375 625.625L695.319625 625.625L688.4794583333335 542.2083333333333zM678.2192083333333 417.0833333333333L579.4955833333333 417.0833333333333L580.4965833333333 500.5L685.059375 500.5L678.2192083333333 417.0833333333333zM447.9057916666668 417.0833333333333L441.065625 500.5L545.6284166666667 500.5L546.6294166666667 417.0833333333333L447.9057916666668 417.0833333333333zM430.8053750000001 625.625L544.168625 625.625L545.1279166666667 542.2083333333333L437.6455416666667 542.2083333333333L430.8053750000001 625.625zM420.5034166666668 750.75L542.7088333333334 750.75L543.668125 667.3333333333333L427.3435833333334 667.3333333333333L420.5034166666668 750.75zM316.3160000000001 417.0833333333333L301.6346666666667 500.5L406.1974583333334 500.5L414.9979166666667 417.0833333333333L316.3160000000001 417.0833333333333zM279.6126666666667 625.625L392.9759166666667 625.625L401.8180833333334 542.2083333333333L294.2940000000001 542.2083333333333L279.6126666666667 625.625zM257.5906666666667 750.75L379.7960833333334 750.75L388.5965416666667 667.3333333333333L272.272 667.3333333333333L257.5906666666667 750.75zM875.875 792.4583333333333L208.5416666666667 792.4583333333333L216.841625 750.75L291.7497916666667 375.375L291.9583333333334 375.375L291.9583333333334 270.895625C291.9583333333334 259.259 301.3010000000001 250.25 312.8125 250.25L813.3125 250.25C824.8240000000001 250.25 834.1666666666667 259.5926666666667 834.1666666666667 271.1041666666667C834.1666666666667 282.6156666666666 824.8240000000001 291.9583333333333 813.3125 291.9583333333333L333.6666666666667 291.9583333333333L333.6666666666667 375.375L792.7085833333334 375.375C796.170375 375.375 799.4653333333333 376.5428333333333 802.8020000000001 377.2935833333333L802.4683333333334 375.375L804.6371666666668 377.62725C822.9471250000001 382.5905416666666 838.838 397.6055416666666 842.5083333333333 416.1240416666667L909.283375 750.75L909.4502083333334 751.7092916666667C913.9964166666668 774.5237500000001 898.898 792.4583333333333 875.875 792.4583333333333zM354.5208333333334 125.125C331.4978333333334 125.125 312.8125 143.8103333333334 312.8125 166.8333333333333C312.8125 189.8563333333333 331.4978333333334 208.5416666666666 354.5208333333334 208.5416666666666C377.5438333333334 208.5416666666666 396.2291666666667 189.8563333333333 396.2291666666667 166.8333333333333C396.2291666666667 143.8103333333334 377.5438333333334 125.125 354.5208333333334 125.125zM792.4583333333334 125.125C769.4353333333333 125.125 750.75 143.8103333333334 750.75 166.8333333333333C750.75 189.8563333333333 769.4353333333333 208.5416666666666 792.4583333333334 208.5416666666666C815.4813333333334 208.5416666666666 834.1666666666667 189.8563333333333 834.1666666666667 166.8333333333333C834.1666666666667 143.8103333333334 815.4813333333334 125.125 792.4583333333334 125.125zM41.7083333333333 855.0208333333333C41.7083333333333 866.5323333333333 50.675625 875.875 62.1454166666667 875.875L188.1045833333333 875.875C199.3658333333334 875.875 208.5416666666667 866.1986666666667 208.5416666666667 855.0208333333333L208.5416666666667 834.1666666666666L62.1454166666667 834.1666666666666C50.8841666666667 834.1666666666666 41.7083333333333 843.843 41.7083333333333 855.0208333333333z" />
    <glyph glyph-name="cart"
      unicode="&#xEA17;"
      horiz-adv-x="1001" d="M821.7024857708333 667.3333333333333L835.8026259916667 750.75L718.4349755916667 750.75L709.9829027958334 667.3333333333333L821.7024857708333 667.3333333333333zM800.5522733541667 542.2083333333333L814.652413575 625.625L705.776896825 625.625L697.2847631750001 542.2083333333333L800.5522733541667 542.2083333333333zM779.4020609375001 417.0833333333333L793.5022011583334 500.5L693.0787572041667 500.5L684.6266844083334 417.0833333333333L779.4020609375001 417.0833333333333zM672.76974765 667.3333333333333L679.3391313041667 750.75L561.9714809041667 750.75L561.050164675 667.3333333333333L672.76974765 667.3333333333333zM662.8756134 542.2083333333333L669.4449970541667 625.625L560.5694803041667 625.625L559.6481640750001 542.2083333333333L662.8756134 542.2083333333333zM653.0215400041667 417.0833333333333L659.5909236583334 500.5L559.1674755333333 500.5L558.2061026208333 417.0833333333333L653.0215400041667 417.0833333333333zM431.8255816875001 417.0833333333333L526.6410149 417.0833333333333L525.6796419875 500.5L425.2561980333334 500.5L431.8255816875001 417.0833333333333zM415.4021213008334 625.625L421.9715041208334 542.2083333333333L525.1989576166667 542.2083333333333L524.2776413875 625.625L415.4021213008334 625.625zM405.5079883020834 750.75L412.0773719562501 667.3333333333333L523.7969528458333 667.3333333333333L522.8756366166667 750.75L405.5079883020834 750.75zM305.4450574175 417.0833333333333L400.2204356150001 417.0833333333333L391.7683624020834 500.5L291.3449167795834 500.5L305.4450574175 417.0833333333333zM270.1947056141667 625.625L284.2948462520834 542.2083333333333L387.5623547629167 542.2083333333333L379.0702244495834 625.625L270.1947056141667 625.625zM249.04449444875 750.75L263.1446350866667 667.3333333333333L374.8642163933334 667.3333333333333L366.4121435975001 750.75L249.04449444875 750.75zM203.5207691183333 874.7808039804166C213.3501928891667 876.6668293716666 223.0085966441667 869.9592843608333 225.2271830141667 859.9534259983334L240.1927870008334 792.4583333333333L842.8526940166668 792.4583333333333C864.9642793458333 792.4583333333333 879.4649947416667 774.5237500000001 875.0987578666668 751.7092916666667L874.9385269625 750.75L810.806921925 416.1240416666667C807.2818879125001 397.6055416666666 792.0200871916667 382.5905416666666 774.4349654708334 377.62725L772.3519929125 375.375L772.67245055 377.2935833333333C769.4678741750001 376.5428333333333 766.3033503125 375.375 762.9786038875 375.375L322.1088604066667 375.375L322.1088604066667 291.9583333333333L782.7668682166667 291.9583333333333C793.8226629666668 291.9583333333333 802.7954768166667 282.6156666666666 802.7954768166667 271.1041666666667C802.7954768166667 259.5926666666667 793.8226629666668 250.25 782.7668682166667 250.25L302.0802509725001 250.25C291.0244591420834 250.25 282.0516419554167 259.259 282.0516419554167 270.895625L282.0516419554167 375.375L281.85135603625 375.375L209.9085922266667 750.75L203.72234883 783.1180090066666L192.40339243125 834.1666666666666L61.336370095 834.1666666666666C50.5209212841667 834.1666666666666 41.7083333333333 843.843 41.7083333333333 855.0208333333333C41.7083333333333 866.5323333333333 50.320635365 875.875 61.336370095 875.875L182.3091691254167 875.875L197.3306255754167 875.875C199.4921224129167 875.875 201.5736226670833 875.4885164025 203.5207691183333 874.7808039804166zM342.13746942375 125.125C320.0258849287501 125.125 302.0802509725001 143.8103333333334 302.0802509725001 166.8333333333333C302.0802509725001 189.8563333333333 320.0258849287501 208.5416666666666 342.13746942375 208.5416666666666C364.2490535016667 208.5416666666666 382.1946874579167 189.8563333333333 382.1946874579167 166.8333333333333C382.1946874579167 143.8103333333334 364.2490535016667 125.125 342.13746942375 125.125zM762.7382596166667 125.125C740.6266742875 125.125 722.6810424166666 143.8103333333334 722.6810424166666 166.8333333333333C722.6810424166666 189.8563333333333 740.6266742875 208.5416666666666 762.7382596166667 208.5416666666666C784.8498449458333 208.5416666666666 802.7954768166667 189.8563333333333 802.7954768166667 166.8333333333333C802.7954768166667 143.8103333333334 784.8498449458333 125.125 762.7382596166667 125.125z" />
    <glyph glyph-name="cat"
      unicode="&#xEA18;"
      horiz-adv-x="1001" d="M699.5453381583334 743.216348875C697.2978512500001 749.10532697 693.4856637041667 779.7735312033333 694.8796729875 792.6610045520833C696.2736822708333 805.5484779008333 702.2764582166667 824.9508112679166 707.8809446041668 826.91380396625C713.4854309916667 828.8767966645834 725.7754712541667 822.5041829170833 740.1707521541667 803.6992822191667C751.9487058416668 793.8843187275 762.4464514333334 782.1917103 765.5189583708333 781.0821927241667C768.5914694791668 779.9726751483333 778.9469688 783.8702112908334 792.1189317708333 786.0892464425C807.7090771750001 786.174594205 818.2921705291667 783.7848639454166 823.8966527458334 783.5003722379167C829.5011391333335 783.2158805304166 857.0114886666667 830.44150063875 871.2929683791667 833.9691977283333C885.5744522625 837.4968948179167 892.0608613583335 792.7463518975 893.4548706416667 780.6839044170833C894.8488799250001 768.6214569366666 895.1333724666667 747.8820127945833 895.1333724666667 747.8820127945833C895.1333724666667 747.8820127945833 907.736354525 725.7201101149999 911.0080104125 703.9280469054166C910.5243730916668 680.9126691033333 904.7776404333334 655.6782565666666 888.4762678458334 635.4793465854166C880.2544584166667 625.2945440408333 885.5744522625 604.83959160625 886.7124182583334 593.3461275408333C887.850388425 581.8526630583333 895.9584008375001 550.9853140458333 891.7479237333334 527.4294024999999C887.5658958833334 503.8734909541666 870.1834516375001 466.2921388125 857.2675277833334 427.0322848458333C844.3516081000001 387.77243505 853.3415432208334 329.1386973875 856.9830394125 319.8927148083333C860.6529806875 310.6467364 865.4039936208334 276.9913688208334 867.9075196458333 268.2859220708333C870.4110456708333 259.5804794916667 883.0424769833334 237.4470264833334 885.0339206041667 237.4470264833334C886.9969108 237.4470264833334 917.0107863583333 232.1270284666666 917.5513180166668 215.2851200499999C918.0918538458334 198.4432158041666 911.6623390875 191.1602275916666 907.736354525 190.9041843041666C903.8103699625 190.6196917625 883.3554187791667 190.9041843041666 883.3554187791667 190.9041843041666C883.3554187791667 190.9041843041666 882.7864336958334 178.8417380749999 868.7609931000001 178.8417380749999C854.7355525041668 178.8417380749999 827.2252071416667 179.666762275 818.5482096458334 189.1972332249999C809.8712163208334 198.727704175 769.729435475 257.6459343791667 766.3724359958333 263.5349133083334C763.0154323458333 269.4238922374999 759.0609985291667 277.2758613625 757.1264534166668 277.2758613625C755.1919124750001 277.2758613625 756.9842113166667 265.2134151333333 750.9245368625001 255.6544907583333C744.8648624083335 246.0955705541667 736.9275455208333 241.0885185041667 736.9275455208333 241.0885185041667C736.9275455208333 241.0885185041667 747.3114940958334 230.4200815583332 751.8064595708333 229.026072275C756.3014292166666 227.6320629916666 766.4008852500001 218.9266162416667 763.5844174291667 208.0021360083332C760.7679496083333 197.0776557750001 753.4849613958334 195.0862121541667 750.9529861166667 194.8301688666667C748.4210108375001 194.5456763249999 745.6329922708334 193.9766954124999 745.6329922708334 193.9766954124999C745.6329922708334 193.9766954124999 744.2389829875001 183.3082542958333 736.3870096916668 179.0977771916666C728.5350405666667 174.8873042583332 699.0901500916667 176.0252702541666 699.0901500916667 176.0252702541666L612.4339804916667 179.9512548166666C612.4339804916667 179.9512548166666 508.6798633583334 177.7037679083333 503.6159128 178.2727529916667C498.5519580708333 178.8417380749999 489.0214871208334 181.3452641 489.0214871208334 181.3452641C489.0214871208334 181.3452641 328.0276411912501 181.8857957583333 310.9296907383334 181.8857957583333C293.8317402854167 181.8857957583333 156.1093137770834 191.9852517916667 135.369869635 192.554236875C114.6304254929167 193.0947685333333 81.80008461625 193.3792610749999 83.4785856070834 215.2566749666665C85.1570861808334 237.1340846875001 102.5679775954167 249.1965309166666 145.1848327095833 252.5819838208332C187.80168782375 255.9389832999999 244.47243195375 255.3700023875 265.7808595108334 254.8294665583334C287.0892870679167 254.2889307291666 358.6104976620834 250.6189894541667 370.6729451425 250.0500085416666C382.73539304 249.4810234583333 442.4786491125 245.2705463541667 450.8996033208333 251.1879745375C459.292108275 257.0769492958333 469.4200093916667 263.7909565958332 465.465575575 288.7693266791666C461.5680402666667 313.7192475083333 439.2923409875001 476.7614351499999 513.3455285291667 545.2101321333333C565.6919977041666 593.6021699941666 608.7071407083333 605.7784140741667 645.7195119375 614.7683516975C662.5329669291667 616.4468526883334 680.3137007333333 624.4979674266667 684.7802169541668 630.6714368120834C689.2467373458334 636.8449066145834 701.0815937125 651.2686351004166 701.0815937125 651.2686351004166C701.0815937125 651.2686351004166 687.9949743333334 676.8444378529166 692.0916544208334 710.3291099070833C692.4899439791667 729.5891970033333 699.5737874125 743.2447981291666 699.5737874125 743.2447981291666L699.5453381583334 743.216348875z" />
    <glyph glyph-name="check-circle-copy"
      unicode="&#xEA19;"
      horiz-adv-x="1001" d="M500.5 83.4166666666666C270.1512355208333 83.4166666666666 83.4166666666667 270.1512355208332 83.4166666666667 500.5C83.4166666666667 730.8487644791667 270.1512355208333 917.5833333333334 500.5 917.5833333333334C730.8487644791668 917.5833333333334 917.5833333333334 730.8487644791667 917.5833333333334 500.5C917.5833333333334 270.1512355208332 730.8487644791668 83.4166666666666 500.5 83.4166666666666zM302.1638645025 418.3217038L417.7584452708334 283.4613573458332C434.6159901416667 266.6038166458333 463.5146349166668 266.6038166458333 477.9639573041667 285.8695798291666L721.1942195791667 642.2862028916666C752.5010826666667 683.2259500733333 716.3777787833334 707.3081540525 685.070911525 668.77662726875L444.2488717333333 370.1572958416666L359.9611548866667 468.8943300708333C326.24606889875 507.4258606083333 268.4487785145834 456.8532301666667 302.1638645025 418.3217038z" />
    <glyph glyph-name="check-circle-o-copy"
      unicode="&#xEA1A;"
      horiz-adv-x="1001" d="M139.02777763875 500.5C139.02777763875 300.8322942625 300.8458661541667 139.0277763874999 500.5 139.0277763874999C700.1677057375 139.0277763874999 861.9722236125001 300.8458661541667 861.9722236125001 500.5C861.9722236125001 700.1677065716667 700.1541338458334 861.97222236125 500.5 861.97222236125C300.8322934283334 861.97222236125 139.02777763875 700.1541338458333 139.02777763875 500.5zM83.4166666666667 500.5C83.4166666666667 730.8487644791667 270.1005882575 917.5833333333334 500.5 917.5833333333334C730.8487644791668 917.5833333333334 917.5833333333334 730.8994117425 917.5833333333334 500.5C917.5833333333334 270.1512355208332 730.8994109083333 83.4166666666666 500.5 83.4166666666666C270.1512355208333 83.4166666666666 83.4166666666667 270.1005890916668 83.4166666666667 500.5zM302.1638645025 418.3217038C268.4487785145834 456.8532301666667 326.24606889875 507.4258606083333 359.9611548866667 468.8943300708333L444.2488717333333 370.1572958416666L685.070911525 668.77662726875C716.3777787833334 707.3081540525 752.5010826666667 683.2259500733333 721.1942195791667 642.2862028916666L477.9639573041667 285.8695798291666C463.5146349166668 266.6038166458333 434.6159901416667 266.6038166458333 417.7584452708334 283.4613573458332L302.1638645025 418.3217038z" />
    <glyph glyph-name="check-circle-o"
      unicode="&#xEA1B;"
      horiz-adv-x="1001" d="M500.5 83.4166666666666C270.1512355208333 83.4166666666666 83.4166666666667 270.1512355208332 83.4166666666667 500.5C83.4166666666667 730.8487644791667 270.1512355208333 917.5833333333334 500.5 917.5833333333334C730.8487644791668 917.5833333333334 917.5833333333334 730.8487644791667 917.5833333333334 500.5C917.5833333333334 270.1512355208332 730.8487644791668 83.4166666666666 500.5 83.4166666666666zM500.5 166.8333333333333C684.7790115833334 166.8333333333333 834.1666666666667 316.2209884166666 834.1666666666667 500.5C834.1666666666667 684.7790115833334 684.7790115833334 834.1666666666666 500.5 834.1666666666666C316.2209884166667 834.1666666666666 166.8333333333334 684.7790115833334 166.8333333333334 500.5C166.8333333333334 316.2209884166666 316.2209884166667 166.8333333333333 500.5 166.8333333333333zM709.0416666666667 688.1875L598.5146000166667 688.1875C598.5146000166667 688.1875 526.1813265041667 560.5560961 500.5 510.9270833333333C474.8186734958334 461.2980705666666 453.829401025 408.5841926833333 453.829401025 408.5841926833333C453.829401025 408.5841926833333 434.3332660333334 423.1800114208333 405.3939351962501 438.5563849333334C376.4546051933334 453.932754275 346.0523929362501 465.8494882708333 346.0523929362501 465.8494882708333L294.5917758116667 399.3749134375001C294.5917758116667 399.3749134375001 354.8394040858334 366.2053186458333 399.8383735179167 337.8375166833333C444.83734295 309.46971055 488.0434016791667 277.4210522416666 488.0434016791667 277.4210522416666C488.0434016791667 277.4210522416666 488.0434016791667 277.4210522416666 534.0543416541667 380.0408445166667C601.0159029875 529.387533675 709.0416666666667 688.1875 709.0416666666667 688.1875z" />
    <glyph glyph-name="check-circle"
      unicode="&#xEA1C;"
      horiz-adv-x="1001" d="M500.5 83.4166666666666C270.1512355208333 83.4166666666666 83.4166666666667 270.1512355208332 83.4166666666667 500.5C83.4166666666667 730.8487644791667 270.1512355208333 917.5833333333334 500.5 917.5833333333334C730.8487644791668 917.5833333333334 917.5833333333334 730.8487644791667 917.5833333333334 500.5C917.5833333333334 270.1512355208332 730.8487644791668 83.4166666666666 500.5 83.4166666666666zM709.0416666666667 688.1875L598.5146000166667 688.1875C598.5146000166667 688.1875 526.1813265041667 560.5560961 500.5 510.9270833333333C474.8186734958334 461.2980705666666 453.829401025 408.5841926833333 453.829401025 408.5841926833333C453.829401025 408.5841926833333 434.3332660333334 423.1800114208333 405.3939351962501 438.5563849333334C376.4546051933334 453.932754275 346.0523929362501 465.8494882708333 346.0523929362501 465.8494882708333L294.5917758116667 399.3749134375001C294.5917758116667 399.3749134375001 354.8394040858334 366.2053186458333 399.8383735179167 337.8375166833333C444.83734295 309.46971055 488.0434016791667 277.4210522416666 488.0434016791667 277.4210522416666C488.0434016791667 277.4210522416666 488.0434016791667 277.4210522416666 534.0543416541667 380.0408445166667C601.0159029875 529.387533675 709.0416666666667 688.1875 709.0416666666667 688.1875z" />
    <glyph glyph-name="check-usp-copy"
      unicode="&#xEA1D;"
      horiz-adv-x="1001" d="M223.0108960245833 414.6462153166667C175.2102180995834 468.5903555666666 257.15423734 539.3920365166666 304.954915265 485.4478962666666L424.4566117458334 347.216044175L765.8900249000001 765.2831115095834C810.2763669000001 819.2272492570833 861.4913807500001 785.5121632691666 817.1050345791667 728.1965169645833L472.2572896708334 229.2132425916666C451.7712824625 202.2411766375 410.7992738850001 202.2411766375 386.8989349225 225.8417369541666L223.0108960245833 414.6462153166667z" />
    <glyph glyph-name="check-usp"
      unicode="&#xEA1E;"
      horiz-adv-x="1001" d="M751.0797002041667 751.0289832879166L617.5812809833334 750.8640272466666C617.5812809833334 750.8640272466666 530.0241655041667 595.2698555970833 498.9313037041667 534.7712703666666C467.8384377333334 474.2726863875 442.408191225 410.0229842041666 442.408191225 410.0229842041666C442.408191225 410.0229842041666 418.8818717416667 427.7751603125 383.9508939933334 446.4641472958333C349.01991749625 465.1531301083332 312.3168577695834 479.6252460999999 312.3168577695834 479.6252460999999L250.0617323370834 398.5661805125C250.0617323370834 398.5661805125 322.7814006083334 358.2474312083333 377.0903761625 323.7556780791666C431.3993517166667 289.2639249500001 483.5372959083334 250.2853144458333 483.5372959083334 250.2853144458333C483.5372959083334 250.2853144458333 483.5372959083334 250.2853144458333 539.2640586666668 375.3699491208334C620.3654415291667 557.4106204333333 751.0797002041667 751.0289832879166 751.0797002041667 751.0289832879166z" />
    <glyph glyph-name="check"
      unicode="&#xEA1F;"
      horiz-adv-x="1001" d="M406.0762101229167 83.4166666666666C380.5244801691667 83.4166666666666 354.9381272937501 96.2394975208332 337.9036410750001 117.6456281000001L146.1617982825 361.4183864958334C112.0582020891667 404.1959004416666 120.61006832875 464.0705194124999 163.1962849183334 493.9904552916666C201.5585025620834 532.4936908958333 261.2138282920834 528.219416725 295.28280156375 485.4419027791666L401.8175882554167 348.5955556416667L742.7150564166667 870.3700309470833C768.2667867875001 917.42182156625 827.9567337708335 930.2446507520834 870.5429524458334 904.5989923804166C917.4224142416668 878.95333400875 930.1982773416668 819.0439636545833 904.6465469708334 772.0269227504166L495.5765105958334 130.4684589541666C478.5420222916667 104.8227972458333 452.9556698333333 83.4166666666666 418.8866973958334 83.4166666666666C414.6280763625001 83.4166666666666 410.369454495 83.4166666666666 406.1108330445834 83.4166666666666L406.0762101229167 83.4166666666666z" />
    <glyph glyph-name="check2"
      unicode="&#xEA20;"
      horiz-adv-x="1001" d="M787.1387941083334 637.1973608L720.2240962583334 703.7982280495833C713.1998999125 710.7894793999999 702.6019917583333 710.7894793999999 695.5777995833333 703.7982280495833L457.9874841208334 467.1995661666666L347.0791436612501 577.5877440666666C340.0549485666667 584.5789958341667 329.4570404125 584.5789958341667 322.4328453179167 577.5877440666666L255.5181462166667 510.9868764C248.4939511220834 503.9956254666666 248.4939511220834 493.4474211333333 255.5181462166667 486.4561702L445.6643357833334 297.2017715333333C452.6885321291667 290.2105206 463.2864402833334 290.2105206 470.3106324583334 297.2017715333333L537.2253344791667 363.8026392000001C537.2253344791667 363.8026392000001 537.2253344791667 363.8026392000001 537.2253344791667 363.8026392000001L787.2620255500001 612.6666545999999C794.2040689916668 619.6579055333333 794.2040689916668 630.2061094495832 787.1798726458334 637.1973608L787.1387941083334 637.1973608z" />
    <glyph glyph-name="checkmark-2"
      unicode="&#xEA21;"
      horiz-adv-x="1001" d="M358.6916666666667 329.4958333333333L183.5166666666667 504.6708333333333L125.125 446.2791666666666L358.6916666666667 212.7125L859.1916666666667 713.2125L800.8000000000001 771.6041666666666z" />
    <glyph glyph-name="chevron-down"
      unicode="&#xEA22;"
      horiz-adv-x="1001" d="M907.7696085791666 606.7087964437501L523.7979371625 218.4782391458332C517.2554553833334 211.8538588833334 509.4894763291667 208.5416666666666 500.5 208.5416666666666C491.5105236708334 208.5416666666666 483.7445446166667 211.8538588833334 477.2020628375 218.4782391458332L93.230392255 606.7087964437501C86.6879083904167 613.3331792087499 83.4166666666667 621.2746143770833 83.4166666666667 630.53310194875C83.4166666666667 639.7915895204167 86.6879083904167 647.73302468875 93.230392255 654.3574074537499L179.1198083675 740.8134258524999C185.6622922320834 747.4378086175 193.4282717033334 750.75 202.4177476154167 750.75C211.4072231104167 750.75 219.1732025816667 747.4378086175 225.71568644625 740.8134258524999L500.5 462.589352225L775.2843139708334 740.8134258524999C781.82679575 747.4378086175 789.592778975 750.75 798.5822511333334 750.75C807.5717274625 750.75 815.3377065166667 747.4378086175 821.8801924666668 740.8134258524999L907.7696085791666 654.3574074537499C914.3120903583334 647.73302468875 917.5833333333334 639.7915895204167 917.5833333333334 630.53310194875C917.5833333333334 621.2746143770833 914.3120903583334 613.3331792087499 907.7696085791666 606.7087964437501z" />
    <glyph glyph-name="chevron-left"
      unicode="&#xEA23;"
      horiz-adv-x="1001" d="M740.8241674166668 775.3163609858334L462.9008759375 500.5193193L740.8241674166668 225.7222759458333C747.4413905291667 219.1794896958334 750.75 211.4131519499999 750.75 202.4232585375C750.75 193.4333692958334 747.4413905291667 185.6670273791666 740.8241674166668 179.1242411291667L653.9536003000001 93.2308460416666C647.3363813583334 86.6880597916666 639.4816845083334 83.4166666666666 630.3895180916667 83.4166666666666C621.297351675 83.4166666666666 613.4426589958333 86.6880597916666 606.8254400541667 93.2308460416666L218.4674984158334 477.1816632916666C211.85027738875 483.7244495416667 208.5416666666667 491.4907872875 208.5416666666667 500.4806806999999C208.5416666666667 509.4705741124999 211.85027738875 517.2369118583333 218.4674984158334 523.7796981083334L606.8254400541667 907.7691531241666C613.4426589958333 914.31193979125 621.297351675 917.5833333333334 630.3895180916667 917.5833333333334C639.4816845083334 917.5833333333334 647.3363813583334 914.31193979125 653.9536003000001 907.7691531241666L740.8241674166668 821.87575845375C747.4413905291667 815.3329717866666 750.75 807.5666323725 750.75 798.5767406283333C750.75 789.5868484670833 747.4413905291667 781.8205090529167 740.8241674166668 775.2777223858334L740.8241674166668 775.3163609858334z" />
    <glyph glyph-name="chevron-right"
      unicode="&#xEA24;"
      horiz-adv-x="1001" d="M782.53250075 477.2020628375L394.1745616141667 93.2303914208334C387.5573401700001 86.6879096416666 379.7026466566668 83.4166666666666 370.6104806570834 83.4166666666666C361.5183142404167 83.4166666666666 353.6636207270834 86.6879096416666 347.0463992829167 93.2303914208334L260.1758317491667 179.1198075333332C253.5586107220834 185.6622934833333 250.25 193.4282725375 250.25 202.4177488666666C250.25 211.407221025 253.5586107220834 219.17320425 260.1758317491667 225.7156860291666L538.0991240625001 500.5L260.1758317491667 775.28431355375C253.5586107220834 781.8267974183334 250.25 789.5927768895833 250.25 798.5822523845834C250.25 807.5717282966666 253.5586107220834 815.3377077679166 260.1758317491667 821.8801916325L347.0463992829167 907.769607745C353.6636207270834 914.3120916095834 361.5183142404167 917.5833333333334 370.6104806570834 917.5833333333334C379.7026466566668 917.5833333333334 387.5573401700001 914.3120916095834 394.1745616141667 907.769607745L782.53250075 523.7979371624999C789.1497238625001 517.2554553833334 792.4583333333334 509.4894763291666 792.4583333333334 500.5C792.4583333333334 491.5105236708333 789.1497238625001 483.7445446166666 782.53250075 477.2020628375z" />
    <glyph glyph-name="chevron-up"
      unicode="&#xEA25;"
      horiz-adv-x="1001" d="M907.7696085791666 346.6425921291666L821.8801924666668 260.1865724791666C815.3377065166667 253.5621922166667 807.5717274625 250.25 798.5822511333334 250.25C789.592778975 250.25 781.82679575 253.5621922166667 775.2843139708334 260.1865724791666L500.5 538.4106477749999L225.71568644625 260.1865724791666C219.1732025816667 253.5621922166667 211.4072231104167 250.25 202.4177476154167 250.25C193.4282717033334 250.25 185.6622922320834 253.5621922166667 179.1198083675 260.1865724791666L93.230392255 346.6425921291666C86.6879083904167 353.2669765625 83.4166666666667 361.2084100625 83.4166666666667 370.4668968C83.4166666666667 379.7253877083333 86.6879083904167 387.6668212083333 93.230392255 394.2912056416666L477.2020628375 782.5217591858333C483.7445446166667 789.1461419508333 491.5105236708334 792.4583333333333 500.5 792.4583333333333C509.4894763291667 792.4583333333333 517.2554553833334 789.1461419508333 523.7979371625 782.5217591858333L907.7696085791666 394.2912056416666C914.3120903583334 387.6668212083333 917.5833333333334 379.7253877083333 917.5833333333334 370.4668968C917.5833333333334 361.2084100625 914.3120903583334 353.2669765625 907.7696085791666 346.6425921291666z" />
    <glyph glyph-name="circle"
      unicode="&#xEA26;"
      horiz-adv-x="1001" d="M917.5833333333334 500.5C917.5833333333334 424.8288753041667 898.9426612833335 355.0378790291667 861.6613171833334 291.1270070041667C824.3799772541666 227.2161308083334 773.7838691916667 176.6200227458334 709.8729929958333 139.3386828166666C645.9621209708333 102.0573387166666 576.1711246958333 83.4166666666666 500.5 83.4166666666666C424.8288753041668 83.4166666666666 355.0378786120833 102.0573387166666 291.1270053358334 139.3386828166666C227.2161320595834 176.6200227458334 176.62002358 227.2161308083334 139.33868073125 291.1270070041667C102.0573378825 355.0378790291667 83.4166666666667 424.8288753041667 83.4166666666667 500.5C83.4166666666667 576.1711246958332 102.0573378825 645.9621213879167 139.33868073125 709.8729946641666C176.62002358 773.7838679404166 227.2161320595834 824.37997642 291.1270053358334 861.66131926875C355.0378786120833 898.9426621175 424.8288753041668 917.5833333333334 500.5 917.5833333333334C576.1711246958333 917.5833333333334 645.9621209708333 898.9426621175 709.8729929958333 861.66131926875C773.7838691916667 824.37997642 824.3799772541666 773.7838679404166 861.6613171833334 709.8729946641666C898.9426612833335 645.9621213879167 917.5833333333334 576.1711246958332 917.5833333333334 500.5z" />
    <glyph glyph-name="close-circle-o"
      unicode="&#xEA27;"
      horiz-adv-x="1001" d="M139.013875 500.5C139.013875 300.8422083333334 300.8422083333334 139.0138749999999 500.5 139.0138749999999C700.1577916666666 139.0138749999999 861.9861250000001 300.8422083333334 861.9861250000001 500.5C861.9861250000001 700.1577916666666 700.1577916666666 861.986125 500.5 861.986125C300.8422083333334 861.986125 139.013875 700.1577916666666 139.013875 500.5zM83.4166666666667 500.5C83.4166666666667 730.855125 270.1031666666667 917.5833333333334 500.5 917.5833333333334C730.855125 917.5833333333334 917.5833333333334 730.8968333333332 917.5833333333334 500.5C917.5833333333334 270.144875 730.8968333333335 83.4166666666666 500.5 83.4166666666666C270.144875 83.4166666666666 83.4166666666667 270.1031666666666 83.4166666666667 500.5zM500.6668333333333 440.9405L363.3212916666667 303.5949583333333C347.0133333333334 287.2870000000001 320.6119583333334 287.2870000000001 304.3457083333334 303.5949583333333C288.0794583333334 319.9029166666667 288.03775 346.3042916666667 304.3457083333334 362.5705416666666L441.6912500000001 499.9160833333333L304.3457083333334 637.261625C288.03775 653.5695833333333 288.03775 679.9709583333333 304.3457083333334 696.2372083333332C320.6536666666667 712.5034583333334 347.0550416666667 712.5451666666667 363.3212916666667 696.2372083333332L500.6668333333333 558.8916666666667L638.012375 696.2372083333332C654.3203333333335 712.5451666666667 680.7217083333335 712.5451666666667 696.9879583333333 696.2372083333332C713.2542083333333 679.9292499999999 713.2959166666667 653.527875 696.9879583333333 637.261625L559.6424166666667 499.9160833333333L696.9879583333333 362.5705416666666C713.2959166666667 346.2625833333333 713.2959166666667 319.8612083333334 696.9879583333333 303.5949583333333C680.6800000000001 287.3287083333332 654.278625 287.2870000000001 638.012375 303.5949583333333L500.6668333333333 440.9405z" />
    <glyph glyph-name="close-circle"
      unicode="&#xEA28;"
      horiz-adv-x="1001" d="M500.6668333333333 440.9405L363.3212916666667 303.5949583333333C347.0133333333334 287.2870000000001 320.6119583333334 287.2870000000001 304.3457083333334 303.5949583333333C288.0794583333334 319.9029166666667 288.03775 346.3042916666667 304.3457083333334 362.5705416666666L441.6912500000001 499.9160833333333L304.3457083333334 637.261625C288.03775 653.5695833333333 288.03775 679.9709583333333 304.3457083333334 696.2372083333332C320.6536666666667 712.5034583333334 347.0550416666667 712.5451666666667 363.3212916666667 696.2372083333332L500.6668333333333 558.8916666666667L638.012375 696.2372083333332C654.3203333333335 712.5451666666667 680.7217083333335 712.5451666666667 696.9879583333333 696.2372083333332C713.2542083333333 679.9292499999999 713.2959166666667 653.527875 696.9879583333333 637.261625L559.6424166666667 499.9160833333333L696.9879583333333 362.5705416666666C713.2959166666667 346.2625833333333 713.2959166666667 319.8612083333334 696.9879583333333 303.5949583333333C680.6800000000001 287.3287083333332 654.278625 287.2870000000001 638.012375 303.5949583333333L500.6668333333333 440.9405zM500.5 83.4166666666666C730.855125 83.4166666666666 917.5833333333334 270.144875 917.5833333333334 500.5C917.5833333333334 730.855125 730.855125 917.5833333333334 500.5 917.5833333333334C270.144875 917.5833333333334 83.4166666666667 730.855125 83.4166666666667 500.5C83.4166666666667 270.144875 270.144875 83.4166666666666 500.5 83.4166666666666z" />
    <glyph glyph-name="close-new"
      unicode="&#xEA29;"
      horiz-adv-x="1001" d="M500.5104270833334 441.5139895833334L363.1648854166667 304.1684479166667C346.8569270833334 287.8604895833334 320.4555520833334 287.8604895833334 304.1893020833334 304.1684479166667C287.9230520833334 320.47640625 287.8813437500001 346.87778125 304.1893020833334 363.1440312499999L441.53484375 500.4895729166666L304.1893020833334 637.8351145833333C287.8813437500001 654.1430729166666 287.8813437500001 680.5444479166666 304.1893020833334 696.8106979166666C320.4972604166667 713.0769479166667 346.8986354166667 713.11865625 363.1648854166667 696.8106979166666L500.5104270833334 559.4651562500001L637.8559687500001 696.8106979166666C654.1639270833334 713.11865625 680.5653020833334 713.11865625 696.8315520833333 696.8106979166666C713.0978020833334 680.5027395833333 713.1395104166667 654.1013645833334 696.8315520833333 637.8351145833333L559.4860104166667 500.4895729166666L696.8315520833333 363.1440312499999C713.1395104166667 346.8360729166666 713.1395104166667 320.4346979166666 696.8315520833333 304.1684479166667C680.52359375 287.9021979166667 654.12221875 287.8604895833334 637.8559687500001 304.1684479166667L500.5104270833334 441.5139895833334z" />
    <glyph glyph-name="close"
      unicode="&#xEA2A;"
      horiz-adv-x="1001" d="M649.45585705 501.7345416416667L917.5833333333334 232.8134225083333L768.6274762833334 83.4166666666666L500.5 352.3377816291666L232.3725232995834 83.4166666666666L83.4166666666667 232.8134225083333L351.5441433670834 501.7345416416667L85.8784605845833 768.1865766574999L234.8343172175001 917.5833333333334L500.5 651.1312966491666L766.1656836166667 917.5833333333334L915.1215406666666 768.1865766574999L649.45585705 501.7345416416667z" />
    <glyph glyph-name="close2"
      unicode="&#xEA2B;"
      horiz-adv-x="1001" d="M502.0726419041667 917.5833333333334C270.5426407016667 917.5833333333334 83.4166666666667 730.4573592983334 83.4166666666667 502.0726419041666C83.4166666666667 273.6879270125001 270.5426407016667 83.4166666666666 502.0726419041667 83.4166666666666C733.602644775 83.4166666666666 917.5833333333334 270.5426390333334 917.5833333333334 502.0726419041666C917.5833333333334 733.602644775 730.4573609666667 917.5833333333334 502.0726419041667 917.5833333333334zM502.0726419041667 178.5522947541667C324.45653114875 178.5522947541667 178.5522964225 324.4565324 178.5522964225 502.0726419041666C178.5522964225 679.6887539108334 324.45653114875 822.41070036125 502.0726419041667 822.41070036125C679.6887555791667 822.41070036125 825.5929890541667 676.5064652179167 825.5929890541667 498.8903544625C825.5929890541667 321.2742407875001 679.6887555791667 178.5522947541667 502.0726419041667 178.5522947541667zM705.0730561875 657.4867403270833L657.4867382416667 705.0730566045834C651.1591669916667 711.4006307741666 641.6123004958334 711.4006307741666 635.284725075 705.0730566045834L502.0726419041667 571.8609730166667L365.6782704575001 705.0730566045834C359.3506962879167 711.4006307741666 349.80383062625 711.4006307741666 343.4762564566667 705.0730566045834L295.8899397620834 657.4867403270833C289.5623660095834 651.1591661575001 289.5623660095834 641.61230007875 295.8899397620834 635.2847263262499L429.10202335 502.0726419041666L295.8899397620834 368.8605587333333C289.5623660095834 362.5329833125 289.5623660095834 352.9861209875 295.8899397620834 346.6585455666666L343.4762564566667 295.9269438125C349.80383062625 289.5993683916667 359.3506962879167 289.5993683916667 365.6782704575001 295.9269438125L498.8903544625001 429.1390269833334L632.1024376333334 295.9269438125C638.4300130541667 289.5993683916667 647.97687955 289.5993683916667 654.3044508 295.9269438125L701.8907687458333 343.5132617583334C708.2183399958334 349.8408330083334 708.2183399958334 359.3876995041666 701.8907687458333 365.715274925L571.8609730166667 502.1096455374999L705.0730561875 635.3217295425C711.4006316083334 641.6493037120833 711.4006316083334 651.1961693737501 705.0730561875 657.5237435433334L705.0730561875 657.4867403270833z" />
    <glyph glyph-name="credit-card"
      unicode="&#xEA2C;"
      horiz-adv-x="1001" d="M864.4999988625001 625.625L864.4999988625001 649.2597223612499C864.4999988625001 696.0973044025 830.1908740125 734.0666666666666 787.8684230083334 734.0666666666666L213.1315790770833 734.0666666666666C170.8091264045834 734.0666666666666 136.49999988625 696.0973044025 136.49999988625 649.2597223612499L136.49999988625 625.625L864.4999988625001 625.625zM864.4999988625001 542.2083333333333L136.49999988625 542.2083333333333L136.49999988625 310.0319430541666C136.49999988625 263.1943605958333 170.8091264045834 225.2249999999999 213.1315790770833 225.2249999999999L787.8684230083334 225.2249999999999C830.1908740125 225.2249999999999 864.4999988625001 263.1943605958333 864.4999988625001 310.0319430541666L864.4999988625001 542.2083333333333zM197.1666667804167 792.4583333333333L803.8333344708334 792.4583333333333C866.6557232666668 792.4583333333333 917.5833333333334 736.4379626770833 917.5833333333334 667.3333333333333L917.5833333333334 291.9583333333333C917.5833333333334 222.8537060749999 866.6557232666668 166.8333333333333 803.8333344708334 166.8333333333333L197.1666667804167 166.8333333333333C134.34427631625 166.8333333333333 83.4166666666667 222.8537060749999 83.4166666666667 291.9583333333333L83.4166666666667 667.3333333333333C83.4166666666667 736.4379626770833 134.34427631625 792.4583333333333 197.1666667804167 792.4583333333333zM803.8333344708334 375.418518475L803.8333344708334 333.6231481916666C803.8333344708334 310.6908095958334 786.8607329916667 291.9583333333333 765.9239671416667 291.9583333333333L652.1593661916668 291.9583333333333C631.0742563125001 291.9583333333333 614.2499988625001 310.6123061708332 614.2499988625001 333.6231481916666L614.2499988625001 375.418518475C614.2499988625001 398.3508570708333 631.2226003416667 417.0833333333333 652.1593661916668 417.0833333333333L765.9239671416667 417.0833333333333C787.0090770208334 417.0833333333333 803.8333344708334 398.4293604958333 803.8333344708334 375.418518475z" />
    <glyph glyph-name="crown"
      unicode="&#xEA2D;"
      horiz-adv-x="1001" d="M847.7218750000001 759.0916666666667C809.1416666666667 759.0916666666667 777.8604166666667 727.8104166666667 777.8604166666667 689.2302083333334C777.8604166666667 663.1625 792.4583333333334 640.2229166666666 813.3125 628.753125C812.2697916666667 626.6677083333334 810.184375 624.5822916666666 809.1416666666667 621.4541666666667C770.5614583333335 555.7635416666667 686.1020833333333 460.8770833333333 639.1802083333333 460.8770833333333C597.471875 460.8770833333333 525.525 590.1729166666667 522.396875 739.2802083333333C550.55 748.6645833333333 570.3614583333334 774.7322916666667 570.3614583333334 806.0135416666667C570.3614583333334 844.59375 539.0802083333334 875.875 500.5 875.875C461.9197916666666 875.875 430.6385416666667 844.59375 430.6385416666667 806.0135416666667C430.6385416666667 774.7322916666667 450.45 748.6645833333333 478.603125 739.2802083333333C475.475 589.1302083333333 403.5281250000001 460.8770833333333 361.8197916666668 460.8770833333333C314.8979166666667 460.8770833333333 230.4385416666667 555.7635416666667 191.8583333333333 621.4541666666667C190.815625 623.5395833333332 188.7302083333334 626.6677083333334 187.6875 628.753125C208.5416666666667 641.265625 223.1395833333333 663.1625 223.1395833333333 689.2302083333334C223.1395833333333 727.8104166666667 191.8583333333333 759.0916666666667 153.278125 759.0916666666667C114.6979166666667 759.0916666666667 83.4166666666667 727.8104166666667 83.4166666666667 689.2302083333334C83.4166666666667 650.65 114.6979166666667 619.36875 153.278125 619.36875L159.534375 619.36875L159.534375 616.2406249999999C159.534375 616.2406249999999 229.3958333333334 251.2927083333333 246.0791666666667 223.1395833333334C262.7625 194.9864583333333 386.8447916666667 162.6624999999999 500.5 162.6624999999999C614.1552083333333 162.6624999999999 737.1947916666668 194.9864583333333 754.9208333333335 223.1395833333334C771.6041666666667 251.2927083333333 841.465625 616.2406249999999 841.465625 616.2406249999999L841.465625 619.36875L847.7218750000001 619.36875C886.3020833333334 619.36875 917.5833333333334 650.65 917.5833333333334 689.2302083333334C917.5833333333334 727.8104166666667 886.3020833333334 759.0916666666667 847.7218750000001 759.0916666666667L847.7218750000001 759.0916666666667zM500.5 200.1999999999999C387.8875000000001 200.1999999999999 296.1291666666667 221.0541666666667 296.1291666666667 248.1645833333332C296.1291666666667 274.2322916666666 387.8875000000001 296.1291666666667 500.5 296.1291666666667C613.1125 296.1291666666667 704.8708333333333 275.275 704.8708333333333 248.1645833333332C704.8708333333333 222.096875 613.1125 200.1999999999999 500.5 200.1999999999999L500.5 200.1999999999999z" />
    <glyph glyph-name="delete"
      unicode="&#xEA2E;"
      horiz-adv-x="1001" d="M441.5244166666667 500.5L294.04375 647.9806666666666L353.0193333333334 706.95625L500.5 559.4755833333334L647.9806666666667 706.95625L706.95625 647.9806666666666L559.4755833333334 500.5L706.95625 353.0193333333333L647.9806666666667 294.0437500000001L500.5 441.5244166666667L353.0193333333334 294.0437500000001L294.04375 353.0193333333333z" />
    <glyph glyph-name="delivery"
      unicode="&#xEA2F;"
      horiz-adv-x="1001" d="M112.6820140279167 403.4113500083334L112.6820140279167 756.90474234375C112.6820140279167 776.53364789 128.6702083333333 792.4583333333333 148.3773958333334 792.4583333333333L503.1067708333334 792.4583333333333C522.8139583333334 792.4583333333333 538.8021513875001 776.53364789 538.8021513875001 756.90474234375L538.8021513875001 403.4113500083334C538.8021513875001 396.8683802416666 533.4843388875 391.5716888416667 526.9152763875001 391.5716888416667L124.5688890279167 391.5716888416667C117.9998265279167 391.5716888416667 112.6820140279167 396.8683802416666 112.6820140279167 403.445967925L112.6820140279167 403.4113500083334zM399.14875 282.3145033041666C399.14875 241.5680809208333 365.990625 208.5416666666666 325.0817015279167 208.5416666666666C284.17277763875 208.5416666666666 251.01465263875 241.5680809208333 251.01465263875 282.3145033041666C251.01465263875 323.0609256875 284.17277763875 356.0873357708333 325.0817015279167 356.0873357708333C365.990625 356.0873357708333 399.14875 323.0609256875 399.14875 282.3145033041666zM362.0978473612501 282.3145033041666C362.0978473612501 302.6704055375 345.51878486125 319.1836105791666 325.0817015279167 319.1836105791666C304.6446181945834 319.1836105791666 288.0655556945834 302.6704055375 288.0655556945834 282.3145033041666C288.0655556945834 261.9586010708333 304.6446181945834 245.4453918583332 325.0817015279167 245.4453918583332C345.51878486125 245.4453918583332 362.0978473612501 261.9586010708333 362.0978473612501 282.3145033041666zM261.2679515279167 356.0873357708333L95.3035416666667 356.0873357708333C88.7344791666667 356.0873357708333 83.4166666666667 350.7906485416667 83.4166666666667 344.247678775L83.4166666666667 308.2786623583334C83.4166666666667 301.7356925916667 88.7344791666667 296.4390053625 95.3035416666667 296.4390053625L228.3183681945834 296.4390053625C231.7940625 320.1875593583333 243.81996513875 341.1319828583334 261.2679515279167 356.1219578583333L261.2679515279167 356.0873357708333zM786.6539222208334 282.3145033041666C786.6539222208334 241.5680809208333 753.4957972208334 208.5416666666666 712.5868750000001 208.5416666666666C671.6779527791667 208.5416666666666 638.5198277791667 241.5680809208333 638.5198277791667 282.3145033041666C638.5198277791667 323.0609256875 671.6779527791667 356.0873357708333 712.5868750000001 356.0873357708333C753.4957972208334 356.0873357708333 786.6539222208334 323.0609256875 786.6539222208334 282.3145033041666zM749.6030208333334 282.3145033041666C749.6030208333334 302.6704055375 733.0239583333333 319.1836105791666 712.5868750000001 319.1836105791666C692.1497916666667 319.1836105791666 675.5707291666668 302.6704055375 675.5707291666668 282.3145033041666C675.5707291666668 261.9586010708333 692.1497916666667 245.4453918583332 712.5868750000001 245.4453918583332C733.0239583333333 245.4453918583332 749.6030208333334 261.9586010708333 749.6030208333334 282.3145033041666zM917.5833333333334 344.247678775L917.5833333333334 308.2786623583334C917.5833333333334 301.7356925916667 912.2655208333334 296.4390053625 905.6964583333335 296.4390053625L809.3154527791668 296.4390053625C802.4335777791666 343.5206858416666 761.7331930541667 379.8358897666666 712.5868750000001 379.8358897666666C663.4405569458334 379.8358897666666 622.7401722208334 343.5206858416666 615.8582972208334 296.4390053625L421.8102763875001 296.4390053625C418.3345833333334 320.1875593583333 406.3086806945834 341.1319828583334 388.8606943054167 356.1219578583333L572.8639583333334 356.1219578583333L572.8639583333334 695.2485152112499C572.8639583333334 708.3344522420833 583.5343388875001 718.9624487879166 596.6724638875 718.9624487879166L709.0416666666667 718.9624487879166C740.6704847208334 718.9624487879166 770.2486458333334 703.3147146025 787.9746875 677.1774592916667L860.4081611125 570.3089725666666C871.0437861125001 554.6266225500001 876.7091666666666 536.1401378666667 876.7091666666666 517.2382298416667L876.7091666666666 356.1219578583333L905.6617027791668 356.1219578583333C912.2307652791666 356.1219578583333 917.5485777791667 350.8252664583333 917.5485777791667 344.2823008625L917.5833333333334 344.247678775zM796.8377083333334 567.5394641583333L738.8978805541667 649.5169735220833C736.6734375000001 652.66729152625 733.0239583333333 654.5367111616666 729.1659375000002 654.5367111616666L638.7978805541667 654.5367111616666C632.2288180541667 654.5367111616666 626.9110055541666 649.2400222641666 626.9110055541666 642.69705374875L626.9110055541666 560.7195427166666C626.9110055541666 554.1765771208334 632.2288180541667 548.8798857208333 638.7978805541667 548.8798857208333L787.1057652791667 548.8798857208333C796.7334375 548.8798857208333 802.3988180541668 559.7155981083333 796.8377083333334 567.574082075L796.8377083333334 567.5394641583333z" />
    </font>
</defs>
</svg>
